<svg width="38" height="56" viewBox="0 0 38 56" fill="none" xmlns="http://www.w3.org/2000/svg">
<path d="M15.8007 31.4285C14.9171 32.942 14.0333 34.4553 13.1496 35.9684L10.8836 39.8509C9.24842 38.5254 7.61313 37.1798 5.97753 35.8141L5.33398 35.2761C6.14335 34.2317 6.95456 33.1358 7.76754 31.9882C9.35815 29.7415 10.7698 27.5448 12.0218 25.4324L15.8007 31.4285Z" fill="white"/>
<path d="M1.94534 38.6528C2.20412 38.2434 2.53486 37.8841 2.92147 37.5924H2.9275C3.06005 37.4538 3.06605 37.4599 3.34922 37.1887C4.21716 36.3603 5.04159 35.4875 5.8194 34.5739C6.09656 34.2485 6.38586 33.9051 6.67506 33.5376C7.42201 32.5905 8.11011 31.5985 8.73558 30.5672C9.55602 29.2259 10.2731 27.824 10.8805 26.3738" stroke="#050A4E" stroke-width="0.421753" stroke-miterlimit="10" stroke-linecap="round"/>
<path d="M12.4842 39.8296C12.7823 40.6864 13.0239 41.562 13.2073 42.4505C13.5483 44.1037 13.4953 44.8876 13.9093 46.7795C14.075 47.5368 14.2274 48.0712 14.4003 48.6749C14.9595 50.6139 15.6474 52.5134 16.4596 54.3608L5.18251 54.0595L1.22049 50.9391L2.25016 44.3875L3.68537 39.5205C5.9785 37.5033 8.81684 36.9201 10.7672 38.0233C11.4998 38.4496 12.0955 39.0763 12.4842 39.8296Z" fill="white"/>
<path d="M16.3135 54.8475C15.3605 52.012 14.7172 49.0816 14.3951 46.1076C14.0565 42.9059 14.1149 40.0223 12.211 37.7774C11.5897 37.0689 10.864 36.4594 10.0588 35.9699C8.94863 35.2909 7.71335 34.8418 6.42632 34.6492C6.12974 34.6015 5.82645 34.6164 5.53595 34.6928C5.24544 34.7691 4.9741 34.9053 4.73928 35.0926C4.24781 35.4887 3.79349 35.9287 3.38188 36.4073C2.26079 37.7974 1.45702 39.4157 1.02673 41.149C0.286249 43.8337 -0.101714 48.7737 0.535133 55" fill="white"/>
<path d="M16.3135 54.8475C15.3605 52.012 14.7172 49.0816 14.3951 46.1076C14.0565 42.9059 14.1149 40.0223 12.211 37.7774C11.5897 37.0689 10.864 36.4594 10.0588 35.9699C8.94863 35.2909 7.71335 34.8418 6.42632 34.6492C6.12974 34.6015 5.82645 34.6164 5.53595 34.6928C5.24544 34.7691 4.9741 34.9053 4.73928 35.0926C4.24781 35.4887 3.79349 35.9287 3.38188 36.4073C2.26079 37.7974 1.45702 39.4157 1.02673 41.149C0.286249 43.8337 -0.101714 48.7737 0.535133 55" stroke="#050A4E" stroke-width="0.421753" stroke-miterlimit="10" stroke-linecap="round"/>
<path d="M12.151 37.7061C12.4041 37.2603 12.6873 36.7963 12.9946 36.3264C13.5182 35.5126 14.0833 34.7263 14.6877 33.9706" fill="white"/>
<path d="M12.151 37.7061C12.4041 37.2603 12.6873 36.7963 12.9946 36.3264C13.5182 35.5126 14.0833 34.7263 14.6877 33.9706" stroke="#050A4E" stroke-width="0.421753" stroke-miterlimit="10" stroke-linecap="round"/>
<path d="M11.7045 19.1825C8.06236 25.0195 10.2965 34.3951 15.9125 36.3135C20.2903 37.8089 25.7724 34.4457 28.0336 30.1022C30.9341 24.5303 29.1652 16.132 23.7263 14.0756C19.3781 12.4284 14.0868 15.3656 11.7045 19.1825Z" fill="white" stroke="#050A4E" stroke-width="0.474171" stroke-miterlimit="10"/>
<path d="M22.6243 20.6851C22.1772 22.9143 19.24 24.4405 17.8344 23.7651C16.5565 23.1511 16.9439 20.8128 15.995 20.7387C15.0948 20.6688 13.8717 22.2245 13.7451 23.7452C13.6246 25.1689 14.5628 25.6202 14.408 26.7782C14.1868 28.4182 11.998 30.1016 10.6038 29.7015C8.53898 29.1081 7.41463 23.7 9.10104 19.6837C10.007 17.6433 11.555 15.9548 13.5091 14.8751C14.3262 14.3782 15.2584 14.1021 16.2143 14.0738C18.4568 14.0738 19.9962 15.7126 20.6222 16.3778C21.5759 17.393 22.9846 18.8896 22.6243 20.6851Z" fill="#050A4E" stroke="#050A4E" stroke-width="0.421753" stroke-miterlimit="10"/>
<path d="M2.62946 15.2292C2.91203 13.8206 3.323 13.3729 3.70017 13.2861C4.35388 13.1355 4.91536 14.0664 5.44737 13.841C6.01433 13.6 5.71002 12.4119 6.32156 12.1221C6.86984 11.8624 7.42844 12.6643 8.03155 12.4083C8.60573 12.1613 8.42492 11.2918 9.00694 10.9321C9.32446 10.7363 9.87825 10.6851 10.9176 11.2364" fill="white"/>
<path d="M2.62946 15.2292C2.91203 13.8206 3.323 13.3729 3.70017 13.2861C4.35388 13.1355 4.91536 14.0664 5.44737 13.841C6.01433 13.6 5.71002 12.4119 6.32156 12.1221C6.86984 11.8624 7.42844 12.6643 8.03155 12.4083C8.60573 12.1613 8.42492 11.2918 9.00694 10.9321C9.32446 10.7363 9.87825 10.6851 10.9176 11.2364" stroke="#050A4E" stroke-width="0.421753" stroke-miterlimit="10" stroke-linecap="round"/>
<path d="M26.0685 5.72925C27.5049 5.78468 28.0116 6.11967 28.1568 6.47816C28.4093 7.09934 27.579 7.80367 27.8863 8.2929C28.2129 8.81467 29.3389 8.32604 29.7221 8.88396C30.0655 9.38343 29.3605 10.0631 29.7106 10.6174C30.045 11.1452 30.8753 10.8288 31.3223 11.347C31.5633 11.629 31.7043 12.1676 31.3223 13.281" fill="white"/>
<path d="M26.0685 5.72925C27.5049 5.78468 28.0116 6.11967 28.1568 6.47816C28.4093 7.09934 27.579 7.80367 27.8863 8.2929C28.2129 8.81467 29.3389 8.32604 29.7221 8.88396C30.0655 9.38343 29.3605 10.0631 29.7106 10.6174C30.045 11.1452 30.8753 10.8288 31.3223 11.347C31.5633 11.629 31.7043 12.1676 31.3223 13.281" stroke="#050A4E" stroke-width="0.421753" stroke-miterlimit="10" stroke-linecap="round"/>
<path d="M35.6127 9.76196C36.7099 10.6904 36.9026 11.2682 36.7965 11.6382C36.6122 12.2834 35.5259 12.325 35.465 12.9034C35.4006 13.5156 36.5887 13.824 36.5496 14.4995C36.5122 15.102 35.5373 15.2044 35.4728 15.8581C35.4126 16.4799 36.2597 16.742 36.2929 17.4246C36.311 17.797 36.088 18.3067 35.1029 18.9502" fill="white"/>
<path d="M35.6127 9.76196C36.7099 10.6904 36.9026 11.2682 36.7965 11.6382C36.6122 12.2834 35.5259 12.325 35.465 12.9034C35.4006 13.5156 36.5887 13.824 36.5496 14.4995C36.5122 15.102 35.5373 15.2044 35.4728 15.8581C35.4126 16.4799 36.2597 16.742 36.2929 17.4246C36.311 17.797 36.088 18.3067 35.1029 18.9502" stroke="#050A4E" stroke-width="0.421753" stroke-miterlimit="10" stroke-linecap="round"/>
<path d="M20.0827 4.20899C20.5231 2.84131 20.9829 2.44365 21.3667 2.40148C22.0337 2.32616 22.4856 3.31487 23.0417 3.1516C23.6321 2.97868 23.4633 1.76222 24.1062 1.54351C24.6798 1.3477 25.1432 2.21109 25.7722 2.0225C26.3705 1.84175 26.2897 0.957877 26.9091 0.666867C27.2465 0.509011 27.8032 0.521063 28.7727 1.18683" fill="white"/>
<path d="M20.0827 4.20899C20.5231 2.84131 20.9829 2.44365 21.3667 2.40148C22.0337 2.32616 22.4856 3.31487 23.0417 3.1516C23.6321 2.97868 23.4633 1.76222 24.1062 1.54351C24.6798 1.3477 25.1432 2.21109 25.7722 2.0225C26.3705 1.84175 26.2897 0.957877 26.9091 0.666867C27.2465 0.509011 27.8032 0.521063 28.7727 1.18683" stroke="#050A4E" stroke-width="0.421753" stroke-miterlimit="10" stroke-linecap="round"/>
<path d="M10.5114 4.77334C11.7676 4.07564 12.3751 4.09914 12.6853 4.3299C13.2234 4.72996 12.8787 5.76084 13.3963 6.02173C13.9457 6.29828 14.6549 5.29872 15.2719 5.57407C15.825 5.8229 15.5732 6.77004 16.1618 7.06105C16.7221 7.3388 17.2667 6.63929 17.918 6.84836C18.2729 6.96284 18.6706 7.35145 18.9243 8.50043" fill="white"/>
<path d="M10.5114 4.77334C11.7676 4.07564 12.3751 4.09914 12.6853 4.3299C13.2234 4.72996 12.8787 5.76084 13.3963 6.02173C13.9457 6.29828 14.6549 5.29872 15.2719 5.57407C15.825 5.8229 15.5732 6.77004 16.1618 7.06105C16.7221 7.3388 17.2667 6.63929 17.918 6.84836C18.2729 6.96284 18.6706 7.35145 18.9243 8.50043" stroke="#050A4E" stroke-width="0.421753" stroke-miterlimit="10" stroke-linecap="round"/>
<path d="M4.27106 46.2641C4.29071 48.0639 4.41589 49.8611 4.64586 51.6463C4.78805 52.7501 4.96338 53.796 5.1604 54.7793" stroke="#050A4E" stroke-width="0.421753" stroke-miterlimit="10" stroke-linecap="round"/>
</svg>
